<svg xmlns="http://www.w3.org/2000/svg" viewBox="0 0 256 256" fill="none">
  <g fill="currentColor">
    <path d="M39 163c26-27 45-43 67-50-8-28 11-55 47-57 31-2 56 21 57 47 1 19-11 39-38 54-15 9-31 15-47 20-1 24-1 41-2 75h-10c0-34 0-51-2-75-15-6-30-13-44-22-20-12-32-26-28-48z" opacity="0.98"/>
    <path d="M30 155c26 7 49 22 67 43-26-1-63-12-83-31 5-4 10-8 16-12z"/>
    <path d="M228 145c-37 6-71 26-98 56 4-33 33-78 84-95 6 12 10 25 14 39z"/>
    <circle cx="109" cy="91" r="9"/>
    <circle cx="153" cy="108" r="6"/>
    <circle cx="192" cy="105" r="5"/>
  </g>
  <path d="M143 116c18-2 33-1 49 3" stroke="transparent"/>
</svg>
