<svg xmlns="http://www.w3.org/2000/svg" viewBox="0 0 1024 1024" width="1024" height="1024" style="color:#FFFFFF">
  <defs>
    <mask id="cutouts" maskUnits="userSpaceOnUse">
      <rect x="0" y="0" width="1024" height="1024" fill="white"/>
      <ellipse cx="415" cy="535" rx="54" ry="74" fill="black"/>
      <ellipse cx="580" cy="548" rx="54" ry="74" fill="black"/>
      <path d="M456 640 C490 696 558 696 596 640" fill="none" stroke="black" stroke-width="54" stroke-linecap="round"/>
      <path d="M350 750 C493 570 620 370 765 185" fill="none" stroke="black" stroke-width="26" stroke-linecap="round" opacity="0.58"/>
    </mask>
  </defs>
  <g fill="currentColor" stroke="none" mask="url(#cutouts)">
    <path d="M230 768 C144 616 188 380 367 273 C528 176 708 166 800 135 C900 236 896 438 797 602 C690 777 466 884 318 839 C276 826 249 804 230 768 Z"/>
    <path d="M241 748 C203 800 172 850 134 905 C123 921 129 944 147 957 C168 972 197 965 211 943 C249 883 287 827 336 770 Z"/>
    <circle cx="818" cy="640" r="56"/>
    <circle cx="725" cy="775" r="52"/>
  </g>
</svg>