<svg xmlns="http://www.w3.org/2000/svg" viewBox="0 0 1622 620" role="img" aria-label="Loomi logo">
  <title>Loomi logo</title>
  <path d="M 1584.0 427.0 L 1581.0 420.0 L 1577.0 416.0 L 1570.0 415.0 L 1569.0 414.0 L 1567.0 415.0 L 1563.0 415.0 L 1556.0 419.0 L 1546.0 428.0 L 1528.0 440.0 L 1504.0 453.0 L 1502.0 453.0 L 1499.0 455.0 L 1497.0 455.0 L 1488.0 459.0 L 1485.0 459.0 L 1480.0 461.0 L 1476.0 461.0 L 1475.0 462.0 L 1465.0 462.0 L 1456.0 459.0 L 1451.0 454.0 L 1449.0 449.0 L 1449.0 437.0 L 1450.0 436.0 L 1451.0 429.0 L 1454.0 423.0 L 1455.0 418.0 L 1460.0 409.0 L 1460.0 407.0 L 1465.0 399.0 L 1469.0 390.0 L 1471.0 388.0 L 1474.0 381.0 L 1476.0 379.0 L 1481.0 367.0 L 1479.0 359.0 L 1475.0 355.0 L 1467.0 352.0 L 1456.0 355.0 L 1451.0 360.0 L 1438.0 382.0 L 1427.0 393.0 L 1402.0 414.0 L 1384.0 426.0 L 1381.0 429.0 L 1378.0 430.0 L 1361.0 441.0 L 1337.0 452.0 L 1325.0 456.0 L 1321.0 456.0 L 1315.0 458.0 L 1302.0 458.0 L 1292.0 454.0 L 1287.0 449.0 L 1284.0 441.0 L 1284.0 426.0 L 1285.0 425.0 L 1285.0 420.0 L 1286.0 419.0 L 1286.0 416.0 L 1287.0 415.0 L 1287.0 412.0 L 1290.0 404.0 L 1290.0 401.0 L 1293.0 392.0 L 1293.0 388.0 L 1294.0 387.0 L 1294.0 372.0 L 1293.0 371.0 L 1293.0 368.0 L 1289.0 360.0 L 1284.0 355.0 L 1278.0 352.0 L 1271.0 351.0 L 1270.0 350.0 L 1254.0 351.0 L 1242.0 355.0 L 1239.0 355.0 L 1236.0 357.0 L 1229.0 359.0 L 1200.0 375.0 L 1176.0 393.0 L 1175.0 391.0 L 1177.0 386.0 L 1178.0 375.0 L 1179.0 374.0 L 1178.0 361.0 L 1174.0 350.0 L 1164.0 339.0 L 1151.0 334.0 L 1135.0 334.0 L 1134.0 335.0 L 1129.0 335.0 L 1128.0 336.0 L 1121.0 337.0 L 1112.0 340.0 L 1109.0 342.0 L 1107.0 342.0 L 1080.0 356.0 L 1053.0 375.0 L 1052.0 373.0 L 1062.0 352.0 L 1064.0 342.0 L 1061.0 334.0 L 1057.0 330.0 L 1050.0 327.0 L 1044.0 327.0 L 1043.0 328.0 L 1039.0 328.0 L 1036.0 330.0 L 1034.0 330.0 L 984.0 364.0 L 981.0 365.0 L 974.0 370.0 L 949.0 382.0 L 947.0 382.0 L 944.0 384.0 L 932.0 388.0 L 929.0 388.0 L 920.0 391.0 L 916.0 391.0 L 915.0 392.0 L 901.0 393.0 L 900.0 394.0 L 883.0 394.0 L 881.0 392.0 L 881.0 388.0 L 882.0 387.0 L 882.0 372.0 L 881.0 371.0 L 881.0 367.0 L 876.0 354.0 L 868.0 343.0 L 854.0 333.0 L 852.0 333.0 L 846.0 330.0 L 838.0 329.0 L 837.0 328.0 L 820.0 328.0 L 819.0 329.0 L 815.0 329.0 L 814.0 330.0 L 811.0 330.0 L 805.0 332.0 L 793.0 339.0 L 790.0 339.0 L 771.0 349.0 L 747.0 365.0 L 738.0 369.0 L 730.0 374.0 L 728.0 374.0 L 712.0 382.0 L 700.0 386.0 L 697.0 386.0 L 693.0 388.0 L 690.0 388.0 L 681.0 391.0 L 677.0 391.0 L 676.0 392.0 L 659.0 393.0 L 658.0 394.0 L 644.0 394.0 L 643.0 393.0 L 643.0 386.0 L 644.0 385.0 L 643.0 369.0 L 642.0 368.0 L 642.0 365.0 L 640.0 359.0 L 632.0 346.0 L 625.0 339.0 L 611.0 331.0 L 601.0 329.0 L 600.0 328.0 L 582.0 328.0 L 581.0 329.0 L 577.0 329.0 L 576.0 330.0 L 573.0 330.0 L 567.0 332.0 L 561.0 335.0 L 558.0 338.0 L 551.0 340.0 L 531.0 351.0 L 519.0 360.0 L 502.0 377.0 L 490.0 394.0 L 482.0 412.0 L 482.0 415.0 L 480.0 420.0 L 480.0 425.0 L 479.0 426.0 L 479.0 441.0 L 480.0 442.0 L 480.0 446.0 L 481.0 447.0 L 482.0 453.0 L 486.0 461.0 L 491.0 468.0 L 501.0 477.0 L 513.0 483.0 L 519.0 484.0 L 520.0 485.0 L 524.0 485.0 L 525.0 486.0 L 549.0 486.0 L 550.0 485.0 L 559.0 484.0 L 574.0 479.0 L 586.0 473.0 L 601.0 463.0 L 619.0 445.0 L 626.0 435.0 L 630.0 427.0 L 633.0 424.0 L 661.0 424.0 L 662.0 423.0 L 671.0 423.0 L 672.0 422.0 L 677.0 422.0 L 678.0 421.0 L 682.0 421.0 L 683.0 420.0 L 688.0 420.0 L 689.0 419.0 L 696.0 418.0 L 719.0 410.0 L 720.0 413.0 L 717.0 422.0 L 717.0 443.0 L 718.0 444.0 L 720.0 454.0 L 727.0 466.0 L 736.0 475.0 L 742.0 479.0 L 751.0 483.0 L 761.0 485.0 L 762.0 486.0 L 787.0 486.0 L 788.0 485.0 L 797.0 484.0 L 801.0 482.0 L 807.0 481.0 L 822.0 474.0 L 836.0 465.0 L 857.0 445.0 L 871.0 424.0 L 899.0 424.0 L 900.0 423.0 L 908.0 423.0 L 909.0 422.0 L 920.0 421.0 L 921.0 420.0 L 929.0 419.0 L 941.0 415.0 L 944.0 415.0 L 950.0 412.0 L 960.0 409.0 L 963.0 407.0 L 965.0 407.0 L 972.0 403.0 L 974.0 403.0 L 1000.0 389.0 L 1005.0 385.0 L 1010.0 383.0 L 1011.0 384.0 L 1006.0 392.0 L 1002.0 401.0 L 1000.0 403.0 L 993.0 418.0 L 991.0 420.0 L 989.0 426.0 L 985.0 432.0 L 968.0 468.0 L 968.0 475.0 L 969.0 478.0 L 974.0 484.0 L 979.0 486.0 L 987.0 486.0 L 993.0 483.0 L 996.0 480.0 L 1011.0 458.0 L 1026.0 440.0 L 1051.0 415.0 L 1052.0 415.0 L 1065.0 403.0 L 1093.0 383.0 L 1107.0 376.0 L 1109.0 374.0 L 1118.0 370.0 L 1120.0 370.0 L 1123.0 368.0 L 1133.0 366.0 L 1134.0 365.0 L 1141.0 365.0 L 1145.0 368.0 L 1146.0 371.0 L 1145.0 385.0 L 1137.0 409.0 L 1135.0 412.0 L 1135.0 414.0 L 1129.0 427.0 L 1128.0 432.0 L 1125.0 437.0 L 1125.0 439.0 L 1120.0 449.0 L 1120.0 451.0 L 1118.0 454.0 L 1117.0 459.0 L 1114.0 465.0 L 1114.0 474.0 L 1117.0 480.0 L 1123.0 484.0 L 1127.0 484.0 L 1128.0 485.0 L 1135.0 484.0 L 1142.0 479.0 L 1150.0 466.0 L 1165.0 446.0 L 1172.0 439.0 L 1172.0 438.0 L 1195.0 416.0 L 1209.0 405.0 L 1229.0 392.0 L 1246.0 384.0 L 1256.0 382.0 L 1257.0 381.0 L 1259.0 381.0 L 1262.0 385.0 L 1262.0 389.0 L 1261.0 390.0 L 1258.0 405.0 L 1256.0 409.0 L 1256.0 413.0 L 1254.0 419.0 L 1254.0 426.0 L 1253.0 427.0 L 1253.0 446.0 L 1254.0 447.0 L 1254.0 451.0 L 1255.0 452.0 L 1255.0 455.0 L 1257.0 461.0 L 1264.0 472.0 L 1273.0 480.0 L 1283.0 485.0 L 1289.0 486.0 L 1290.0 487.0 L 1294.0 487.0 L 1295.0 488.0 L 1317.0 488.0 L 1318.0 487.0 L 1323.0 487.0 L 1324.0 486.0 L 1328.0 486.0 L 1329.0 485.0 L 1336.0 484.0 L 1348.0 480.0 L 1381.0 464.0 L 1397.0 454.0 L 1416.0 440.0 L 1418.0 442.0 L 1417.0 449.0 L 1418.0 450.0 L 1418.0 456.0 L 1419.0 457.0 L 1420.0 464.0 L 1424.0 472.0 L 1433.0 482.0 L 1437.0 485.0 L 1451.0 491.0 L 1456.0 491.0 L 1457.0 492.0 L 1477.0 492.0 L 1478.0 491.0 L 1483.0 491.0 L 1484.0 490.0 L 1495.0 488.0 L 1510.0 483.0 L 1513.0 481.0 L 1515.0 481.0 L 1545.0 465.0 L 1574.0 444.0 L 1582.0 436.0 L 1584.0 430.0 Z
M 785.0 378.0 L 793.0 394.0 L 802.0 403.0 L 809.0 408.0 L 821.0 414.0 L 834.0 418.0 L 836.0 420.0 L 833.0 425.0 L 825.0 434.0 L 814.0 443.0 L 798.0 452.0 L 789.0 455.0 L 786.0 455.0 L 785.0 456.0 L 779.0 456.0 L 778.0 457.0 L 768.0 456.0 L 760.0 453.0 L 752.0 446.0 L 748.0 436.0 L 749.0 422.0 L 756.0 406.0 L 761.0 399.0 L 774.0 385.0 L 783.0 378.0 Z
M 546.0 378.0 L 548.0 380.0 L 548.0 382.0 L 554.0 393.0 L 558.0 398.0 L 565.0 404.0 L 583.0 414.0 L 596.0 418.0 L 598.0 420.0 L 591.0 430.0 L 579.0 441.0 L 565.0 450.0 L 563.0 450.0 L 558.0 453.0 L 552.0 455.0 L 549.0 455.0 L 548.0 456.0 L 536.0 457.0 L 535.0 456.0 L 526.0 455.0 L 520.0 452.0 L 514.0 446.0 L 511.0 440.0 L 511.0 425.0 L 512.0 424.0 L 512.0 421.0 L 514.0 415.0 L 522.0 401.0 L 540.0 382.0 Z
M 814.0 365.0 L 819.0 360.0 L 823.0 358.0 L 834.0 358.0 L 841.0 361.0 L 847.0 367.0 L 850.0 374.0 L 850.0 381.0 L 851.0 382.0 L 850.0 383.0 L 850.0 389.0 L 848.0 391.0 L 846.0 391.0 L 845.0 390.0 L 842.0 390.0 L 836.0 388.0 L 826.0 383.0 L 817.0 375.0 L 814.0 369.0 Z
M 577.0 364.0 L 581.0 360.0 L 586.0 358.0 L 596.0 358.0 L 604.0 362.0 L 608.0 366.0 L 611.0 373.0 L 611.0 376.0 L 612.0 377.0 L 612.0 386.0 L 611.0 389.0 L 608.0 391.0 L 599.0 388.0 L 589.0 383.0 L 585.0 380.0 L 577.0 371.0 Z
M 1513.0 278.0 L 1510.0 277.0 L 1501.0 277.0 L 1493.0 281.0 L 1487.0 288.0 L 1483.0 297.0 L 1483.0 305.0 L 1487.0 313.0 L 1491.0 316.0 L 1497.0 318.0 L 1507.0 317.0 L 1512.0 314.0 L 1519.0 307.0 L 1522.0 301.0 L 1523.0 291.0 L 1522.0 290.0 L 1522.0 287.0 L 1519.0 282.0 Z
M 423.0 35.0 L 418.0 33.0 L 408.0 33.0 L 404.0 35.0 L 398.0 42.0 L 398.0 44.0 L 394.0 51.0 L 392.0 58.0 L 389.0 63.0 L 389.0 65.0 L 386.0 70.0 L 386.0 72.0 L 383.0 77.0 L 383.0 79.0 L 380.0 84.0 L 380.0 86.0 L 377.0 91.0 L 377.0 93.0 L 374.0 98.0 L 374.0 100.0 L 371.0 105.0 L 368.0 114.0 L 360.0 130.0 L 357.0 139.0 L 349.0 155.0 L 347.0 162.0 L 335.0 187.0 L 335.0 189.0 L 325.0 210.0 L 325.0 212.0 L 321.0 219.0 L 318.0 228.0 L 314.0 235.0 L 311.0 244.0 L 307.0 251.0 L 304.0 260.0 L 300.0 267.0 L 297.0 276.0 L 288.0 294.0 L 288.0 296.0 L 275.0 323.0 L 275.0 325.0 L 269.0 336.0 L 269.0 338.0 L 263.0 349.0 L 263.0 351.0 L 253.0 370.0 L 253.0 372.0 L 248.0 381.0 L 248.0 383.0 L 244.0 389.0 L 244.0 391.0 L 236.0 407.0 L 234.0 409.0 L 226.0 426.0 L 224.0 428.0 L 220.0 437.0 L 218.0 439.0 L 216.0 444.0 L 214.0 446.0 L 200.0 470.0 L 198.0 472.0 L 177.0 471.0 L 176.0 470.0 L 132.0 470.0 L 131.0 471.0 L 122.0 471.0 L 121.0 472.0 L 110.0 473.0 L 109.0 474.0 L 98.0 476.0 L 94.0 478.0 L 91.0 478.0 L 88.0 480.0 L 81.0 482.0 L 63.0 492.0 L 59.0 495.0 L 45.0 510.0 L 40.0 519.0 L 38.0 525.0 L 38.0 530.0 L 37.0 531.0 L 37.0 543.0 L 38.0 544.0 L 40.0 554.0 L 46.0 564.0 L 55.0 572.0 L 69.0 579.0 L 72.0 579.0 L 77.0 581.0 L 83.0 581.0 L 84.0 582.0 L 99.0 582.0 L 100.0 581.0 L 107.0 581.0 L 108.0 580.0 L 112.0 580.0 L 113.0 579.0 L 120.0 578.0 L 129.0 575.0 L 132.0 573.0 L 134.0 573.0 L 155.0 562.0 L 177.0 546.0 L 196.0 528.0 L 214.0 506.0 L 221.0 506.0 L 222.0 507.0 L 234.0 508.0 L 235.0 509.0 L 245.0 510.0 L 246.0 511.0 L 252.0 511.0 L 253.0 512.0 L 263.0 513.0 L 264.0 514.0 L 270.0 514.0 L 271.0 515.0 L 281.0 516.0 L 282.0 517.0 L 286.0 517.0 L 292.0 519.0 L 297.0 519.0 L 303.0 521.0 L 308.0 521.0 L 314.0 523.0 L 319.0 523.0 L 325.0 525.0 L 336.0 526.0 L 337.0 527.0 L 353.0 529.0 L 354.0 530.0 L 360.0 530.0 L 366.0 532.0 L 371.0 532.0 L 372.0 533.0 L 377.0 533.0 L 378.0 534.0 L 383.0 534.0 L 389.0 536.0 L 401.0 537.0 L 402.0 538.0 L 407.0 538.0 L 408.0 539.0 L 413.0 539.0 L 414.0 540.0 L 419.0 540.0 L 420.0 541.0 L 426.0 541.0 L 427.0 542.0 L 433.0 542.0 L 434.0 543.0 L 440.0 543.0 L 441.0 544.0 L 447.0 544.0 L 448.0 545.0 L 454.0 545.0 L 455.0 546.0 L 463.0 546.0 L 464.0 547.0 L 479.0 548.0 L 480.0 549.0 L 487.0 549.0 L 488.0 550.0 L 505.0 551.0 L 506.0 552.0 L 517.0 552.0 L 518.0 553.0 L 529.0 553.0 L 530.0 554.0 L 546.0 554.0 L 547.0 555.0 L 594.0 555.0 L 595.0 554.0 L 609.0 554.0 L 610.0 553.0 L 619.0 553.0 L 620.0 552.0 L 634.0 551.0 L 635.0 550.0 L 646.0 549.0 L 647.0 548.0 L 651.0 548.0 L 652.0 547.0 L 656.0 547.0 L 657.0 546.0 L 661.0 546.0 L 662.0 545.0 L 673.0 543.0 L 691.0 537.0 L 694.0 535.0 L 696.0 535.0 L 702.0 530.0 L 704.0 526.0 L 704.0 516.0 L 702.0 512.0 L 699.0 509.0 L 692.0 506.0 L 684.0 507.0 L 667.0 513.0 L 664.0 513.0 L 660.0 515.0 L 656.0 515.0 L 647.0 518.0 L 643.0 518.0 L 637.0 520.0 L 632.0 520.0 L 631.0 521.0 L 626.0 521.0 L 625.0 522.0 L 617.0 522.0 L 616.0 523.0 L 606.0 523.0 L 605.0 524.0 L 584.0 524.0 L 583.0 525.0 L 563.0 525.0 L 562.0 524.0 L 527.0 523.0 L 526.0 522.0 L 515.0 522.0 L 514.0 521.0 L 496.0 520.0 L 495.0 519.0 L 488.0 519.0 L 487.0 518.0 L 480.0 518.0 L 479.0 517.0 L 471.0 517.0 L 470.0 516.0 L 455.0 515.0 L 454.0 514.0 L 448.0 514.0 L 447.0 513.0 L 427.0 511.0 L 426.0 510.0 L 421.0 510.0 L 420.0 509.0 L 415.0 509.0 L 414.0 508.0 L 409.0 508.0 L 408.0 507.0 L 402.0 507.0 L 401.0 506.0 L 384.0 504.0 L 378.0 502.0 L 367.0 501.0 L 361.0 499.0 L 356.0 499.0 L 350.0 497.0 L 345.0 497.0 L 344.0 496.0 L 333.0 495.0 L 332.0 494.0 L 316.0 492.0 L 310.0 490.0 L 299.0 489.0 L 293.0 487.0 L 288.0 487.0 L 282.0 485.0 L 277.0 485.0 L 271.0 483.0 L 266.0 483.0 L 265.0 482.0 L 260.0 482.0 L 259.0 481.0 L 236.0 478.0 L 234.0 476.0 L 247.0 452.0 L 249.0 450.0 L 252.0 443.0 L 254.0 441.0 L 261.0 426.0 L 263.0 424.0 L 296.0 356.0 L 296.0 354.0 L 311.0 323.0 L 311.0 321.0 L 319.0 305.0 L 319.0 303.0 L 326.0 289.0 L 326.0 287.0 L 329.0 282.0 L 332.0 273.0 L 336.0 266.0 L 339.0 257.0 L 343.0 250.0 L 346.0 241.0 L 350.0 234.0 L 353.0 225.0 L 357.0 218.0 L 357.0 216.0 L 367.0 195.0 L 370.0 186.0 L 378.0 170.0 L 378.0 168.0 L 381.0 163.0 L 381.0 161.0 L 384.0 156.0 L 384.0 154.0 L 387.0 149.0 L 387.0 147.0 L 390.0 142.0 L 390.0 140.0 L 393.0 135.0 L 396.0 126.0 L 400.0 119.0 L 402.0 112.0 L 406.0 105.0 L 406.0 103.0 L 409.0 98.0 L 409.0 96.0 L 412.0 91.0 L 412.0 89.0 L 415.0 84.0 L 418.0 75.0 L 422.0 68.0 L 422.0 66.0 L 429.0 50.0 L 428.0 42.0 L 426.0 38.0 Z
M 176.0 503.0 L 150.0 528.0 L 137.0 537.0 L 122.0 545.0 L 110.0 549.0 L 102.0 550.0 L 101.0 551.0 L 85.0 551.0 L 76.0 548.0 L 70.0 542.0 L 69.0 539.0 L 69.0 533.0 L 74.0 523.0 L 83.0 515.0 L 99.0 507.0 L 105.0 506.0 L 109.0 504.0 L 118.0 503.0 L 119.0 502.0 L 136.0 501.0 L 137.0 500.0 L 164.0 500.0 L 165.0 501.0 L 174.0 501.0 Z" fill="#FFFFFF" fill-rule="evenodd"/>
</svg>
